/* XPM */
static char *b76e4c54a8ee4228a50cbb9d0ace5bf5lbe0Qliy8NsGCPXk[] = {
/* columns rows colors chars-per-pixel */
"64 64 150 2 ",
"   c None",
".  c #CAA202",
"X  c #CBA302",
"o  c #CEA501",
"O  c #CFA601",
"+  c #CCA402",
"@  c #CDA402",
"#  c #D0A702",
"$  c #D1A801",
"%  c #D2A802",
"&  c #D2A902",
"*  c #D3A902",
"=  c #D6AB01",
"-  c #D4AA02",
";  c #D5AB02",
":  c #D6AB02",
">  c #D6AC01",
",  c #D8AD02",
"<  c #D8AE02",
"1  c #DAAF02",
"2  c #DBAF02",
"3  c #DDB101",
"4  c #DCB002",
"5  c #DFB302",
"6  c #E1B401",
"7  c #E1B402",
"8  c #E1B502",
"9  c #E2B502",
"0  c #E3B602",
"q  c #E4B602",
"w  c #E4B702",
"e  c #E5B702",
"r  c #E5B801",
"t  c #E6B801",
"y  c #E7B901",
"u  c #E6B802",
"i  c #E6B902",
"p  c #E7B902",
"a  c #E8B901",
"s  c #E8BA00",
"d  c #E8BA01",
"f  c #E9BB01",
"g  c #EABB01",
"h  c #E8BA02",
"j  c #E9BB02",
"k  c #EABC01",
"l  c #EBBC01",
"z  c #EBBD01",
"x  c #EDBD01",
"c  c #EDBE00",
"v  c #EDBE01",
"b  c #EFBF00",
"n  c #EEBF01",
"m  c #EFBF01",
"M  c #EFC001",
"N  c #F0C000",
"B  c #F1C100",
"V  c #F0C001",
"C  c #F0C101",
"Z  c #F1C101",
"A  c #F2C201",
"S  c #F5C400",
"D  c #F5C500",
"F  c #F6C400",
"G  c #F6C500",
"H  c #F7C500",
"J  c #F6C501",
"K  c #F7C600",
"L  c #F8C600",
"P  c #F9C700",
"I  c #FAC800",
"U  c #FBC800",
"Y  c #FBC900",
"T  c #FCC900",
"R  c #FCCA00",
"E  c #FDCA00",
"W  c #FDCB00",
"Q  c #FECB00",
"!  c #FFCB00",
"~  c #FECC00",
"^  c #FFCC00",
"/  c #FFCD00",
"(  c #FFCC01",
")  c #FFCD01",
"_  c #FFCC02",
"`  c #FFCD03",
"'  c #FFCD05",
"]  c #FFCD06",
"[  c #FFCE08",
"{  c #FFCE09",
"}  c #FFCE0A",
"|  c #FECE0C",
" . c #FFCE0D",
".. c #FECE0E",
"X. c #FECF12",
"o. c #FFCF12",
"O. c #FFCF13",
"+. c #FFD013",
"@. c #FFD014",
"#. c #FED015",
"$. c #FED019",
"%. c #FED11A",
"&. c #FFD11B",
"*. c #FFD11D",
"=. c #FED11E",
"-. c #FED21F",
";. c #FFD223",
":. c #FED224",
">. c #FED324",
",. c #FFD326",
"<. c #FED42B",
"1. c #FED42E",
"2. c #FED531",
"3. c #FED533",
"4. c #FED73E",
"5. c #FED840",
"6. c #FED842",
"7. c #FED944",
"8. c #FED945",
"9. c #FED946",
"0. c #FED947",
"q. c #FED94A",
"w. c #FEDB50",
"e. c #FEDB52",
"r. c #FEDC53",
"t. c #FEDC55",
"y. c #FEDC58",
"u. c #FEDD5C",
"i. c #FEDD5F",
"p. c #FEDE62",
"a. c #FEDF64",
"s. c #FEDE65",
"d. c #FEDF66",
"f. c #FEE06A",
"g. c #FEE16E",
"h. c #FEE16F",
"j. c #FEE173",
"k. c #FEE275",
"l. c #FEE276",
"z. c #FEE277",
"x. c #FEE37A",
"c. c #FEE27B",
"v. c #FEE37C",
"b. c #FEE37D",
"n. c #FEE37F",
"m. c #FEE47F",
"M. c #FEE380",
"N. c #FEE480",
"B. c #FEE481",
"V. c #FEE582",
/* pixels */
"                                                                                                                                ",
"                                                                                                                                ",
"                                                                                                                                ",
"                                                                                                                                ",
"                                                                                                                                ",
"                                                                                                                                ",
"                                                                                                                                ",
"                                                                                                                                ",
"                                                                                                                                ",
"                                                                                                                                ",
"                                                                                                                                ",
"                                                                                                                                ",
"                                                                                                                                ",
"                                                                                                                                ",
"                                                                                                                                ",
"                                                                                                                                ",
"                                                                                                                                ",
"                                                      M.N.N.N.N.N.N.N.N.                                                        ",
"                                                  N.N.N.n.g.f.f.f.f.g.n.N.N.N.                                                  ",
"                                              N.N.j.w.1.&.@.+.+.+.+.@.-.3.r.z.N.M.                                              ",
"                                            n.j.7.&.[ ^ ^ ^ ^ ^ ^ ^ ^ ^ ^ [ -.7.j.N.                                            ",
"                                          c.y.-.] ^ ^ ^ ^ ^ ^ ^ ^ ^ ^ ^ ^ ^ ^ ] >.a.n.                                          ",
"                                        z.7.| ^ ^ ^ ^ ^ ^ ^ W W W W ^ ^ ^ ^ ^ ^ ^ o.t.n.                                        ",
"                                      c.q.] ^ ^ ^ ^ ^ I S c s s s s c S I ^ ^ ^ ^ ^ | i.m.                                      ",
"                                    M.w.| ^ ^ ^ ^ W N 4 + . . . . . . + 8 N W ^ ^ ^ ^ &.i.m.                                    ",
"                                    p.@.^ ^ ^ ^ W k # + & ; , , , , ; & + & k W ^ ^ ^ ^ -.a.                                    ",
"                                  g.<.^ ^ ^ ^ W c & & 4 8 w 8 8 8 8 w 8 , & & c W ^ ^ ^ ^ 3.z.                                  ",
"                                  6.[ ^ ^ ^ ^ S > ; 8 w 8 8 u c c s 8 8 8 8 ; ; S ^ ^ ^ ^ | 7.                                  ",
"                                a.>.^ ^ ^ ^ W u & 8 8 8 8 8 N W W S u 8 8 8 8 ; u W ^ ^ ^ ^ >.                                  ",
"                                6.o.^ ^ ^ ^ P ; 7 8 8 8 8 8 P ^ ^ I s 8 8 8 8 4 ; P ^ ^ ^ ^ o.4.                                ",
"                                >.^ ^ ^ ^ W b , w w 8 8 8 8 I ^ ^ I s w w w 8 8 , c W ^ ^ ^ ^ ;.                                ",
"                                @.^ ^ ^ ^ W u 8 8 8 8 w w 8 I ^ ^ I s w w w 8 8 8 s W ^ ^ ^ ^ @.                                ",
"                                ^ ^ ^ ^ ^ W k 8 8 8 8 8 8 8 I ^ ^ W s w w w w w w c W ^ ^ ^ ^ ]                                 ",
"                                ^ ^ ^ ^ ^ W M 8 8 8 8 8 8 8 I ^ ^ I s w w 8 w w w N W ^ ^ ^ ^ ^                                 ",
"                                ^ ^ ^ ^ ^ W N 8 w 8 w w 8 8 I ^ ^ I s 8 8 8 8 8 8 N W ^ ^ ^ ^ ^                                 ",
"                                ^ ^ ^ ^ ^ ^ S 8 w w w w 8 8 I ^ ^ I s 8 8 8 8 8 8 S ^ ^ ^ ^ ^ ^                                 ",
"                                ^ ^ ^ ^ ^ ^ I u w w 8 8 8 8 P ^ ^ I s 8 8 8 8 w u I ^ ^ ^ ^ ^ ^                                 ",
"                                W ^ ^ ^ ^ ^ W N 8 w 8 8 w 8 N W ^ S w 8 8 8 8 8 N W ^ ^ ^ ^ ^                                   ",
"                                  ^ ^ ^ ^ ^ ^ I s 8 8 8 w w s c c s 8 8 w w w s I ^ ^ ^ ^ ^ ^                                   ",
"                                  ^ ^ ^ ^ ^ ^ ^ S u 8 8 w w w 8 8 8 8 8 w w s S ^ ^ ^ ^ ^ ^ ^                                   ",
"                                    ^ ^ ^ ^ ^ ^ ^ S s 8 8 8 8 8 8 8 8 8 8 k P ^ ^ ^ ^ ^ ^ ^                                     ",
"                                    ^ ^ ^ ^ ^ ^ ^ ^ I c u w w w w w w u N I ^ ^ ^ ^ ^ ^ ^ W                                     ",
"                                      ^ ^ ^ ^ ^ ^ ^ ^ W I S N N N N S I W ^ ^ ^ ^ ^ ^ ^ ^                                       ",
"                                        ^ ^ ^ ^ ^ ^ ^ ^ ^ ^ W W W W ^ ^ ^ ^ ^ ^ ^ ^ ^ ^                                         ",
"                                          ^ ^ ^ ^ ^ ^ ^ ^ ^ ^ ^ ^ ^ ^ ^ ^ ^ ^ ^ ^ ^ ^                                           ",
"                                            ^ ^ ^ ^ ^ ^ ^ ^ ^ ^ ^ ^ ^ ^ ^ ^ ^ ^ ^ ^                                             ",
"                                              ^ ^ ^ ^ ^ ^ ^ ^ ^ ^ ^ ^ ^ ^ ^ ^ ^ W                                               ",
"                                                  ^ ^ ^ ^ ^ ^ ^ ^ ^ ^ ^ ^ ^ ^                                                   ",
"                                                        ^ ^ ^ ^ ^ ^ ^ ^                                                         ",
"                                                                                                                                ",
"                                                                                                                                ",
"                                                                                                                                ",
"                                                                                                                                ",
"                                                                                                                                ",
"                                                                                                                                ",
"                                                                                                                                ",
"                                                                                                                                ",
"                                                                                                                                ",
"                                                                                                                                ",
"                                                                                                                                ",
"                                                                                                                                ",
"                                                                                                                                ",
"                                                                                                                                ",
"                                                                                                                                "
};
