/* XPM */
static char *_b53652899294fe9b96a813cdec3e7c1MInEUDFKNwP33OYo[] = {
/* columns rows colors chars-per-pixel */
"70 70 22 1 ",
"  c gray20",
". c #393633",
"X c #3B3835",
"o c #403A34",
"O c #4E4135",
"+ c #4B4239",
"@ c #5B4836",
"# c #53473B",
"$ c #614E3C",
"% c #64513F",
"& c #775739",
"* c #7D5A39",
"= c #7C6045",
"- c #8B623B",
"; c #99693C",
": c #A06D3D",
"> c #A5794F",
", c #AC7949",
"< c #AC7C4F",
"1 c #B07D4D",
"2 c #B68353",
"3 c #ACC0C1",
/* pixels */
"3333333333::::::::::::::::::::::::::::::::::::::::::::::::::3333333333",
"3333333333::::::::::::::::::::::::::::::::::::::::::::::::::3333333333",
"3333333333::::::::::::::::::::::::::::::::::::::::::::::::::3333333333",
"3333333333::::::::::::::::::::::::::::::::::::::::::::::::::3333333333",
"3333333333::::::::::::::::::::::::::::::::::::::::::::::::::3333333333",
"3333333333::::::::::::::::::::::::::::::::::::::::::::::::::3333333333",
"3333333333::::::::::::::::::::::::::::::::::::::::::::::::::3333333333",
"3333333333::::::::::::::::::::::::::::::::::::::::::::::::::3333333333",
"3333333333::::::::::::::::::::::::::::::::::::::::::::::::::3333333333",
"3333333333::::::::::::::::::::::::::::::::::::::::::::::::::3333333333",
"3333333333::::::::::::::::::::::::::::::::::::::::::::::::::3333333333",
"3333333333::::::::::::::::::::::::::::::::::::::::::::::::::3333333333",
"3333333333::::::::::::::::::::::::::::::::::::::::::::::::::3333333333",
"3333333333::::::::::::::::::::::::::::::::::::::::::::::::::3333333333",
"3333333333::::::::::::::::::::::::::::::::::::::::::::::::::3333333333",
"3333333333:::::::::::::::::::::::::::::::::::*OOOO*:::::::::3333333333",
"3333333333::::::::::::::::::::::::::::::::::-.    .-::::::::3333333333",
"3333333333::::::::::::::::::::::::::::::::::O      O::::::::3333333333",
"3333333333::::::::::::::::::::::::::::::::::        ::::::::3333333333",
"3333333333::::::::::::::::::::::::::::::::::X       ::::::::3333333333",
"3333333333::::::::::::::::::::::::::::::::::=      %::::::::3333333333",
"3333333333::::::::::::::::::::::::::::::::::2#    +<::::::::3333333333",
"3333333333::::::::::::::::::::::::::::::::::,>    >,::::::::3333333333",
"3333333333:::::::::::::::::::::::::::::::::::$    $:::::::::3333333333",
"3333333333:::::::::::::::::::::::::::::::::::.    .;::::::::3333333333",
"3333333333::::::::::::::::::::::::::::::::::*      &::::::::3333333333",
"3333333333::::::::::::::::::::::::::::::::::@      o::::::::3333333333",
"3333333333::::::::::::::::::::::::::::::::::O       ::::::::3333333333",
"3333333333::::::::::::::::::::::::::::::::::12222222::::::::3333333333",
"3333333333::::::::::::::::::::::::::::::::::12222222::::::::3333333333",
"3333333333::::::::::::::::::::::::::::::::::::::::::::::::::3333333333",
"3333333333::::::::::::::::::::::::::::::::::::::::::::::::::3333333333",
"3333333333::::::::::::::::::::::::::::::::::::::::::::::::::3333333333",
"3333333333::::::::::::::::::::::::::::::::::::::::::::::::::3333333333",
"3333333333::::::::::::::::::::::::::::::::::::::::::::::::::3333333333",
"3333333333::::::::::::::::::::::::::::::::::::::::::::::::::3333333333",
"3333333333::::::::::::::::::::::::::::::::::::::::::::::::::3333333333",
"3333333333::::::::::::::::::::::::::::::::::::::::::::::::::3333333333",
"3333333333::::::::::::::::::::::::::::::::::::::::::::::::::3333333333",
"3333333333::::::::::::::::::::::::::::::::::::::::::::::::::3333333333",
"3333333333::::::::::::::::::::::::::::::::::::::::::::::::::3333333333",
"3333333333::::::::::::::::::::::::::::::::::::::::::::::::::3333333333",
"3333333333::::::::::::::::::::::::::::::::::::::::::::::::::3333333333",
"3333333333::::::::::::::::::::::::::::::::::::::::::::::::::3333333333",
"3333333333::::::::::::::::::::::::::::::::::::::::::::::::::3333333333",
"3333333333::::::::::::::::::::::::::::::::::::::::::::::::::3333333333",
"3333333333::::::::::::::::::::::::::::::::::::::::::::::::::3333333333",
"3333333333::::::::::::::::::::::::::::::::::::::::::::::::::3333333333",
"3333333333::::::::::::::::::::::::::::::::::::::::::::::::::3333333333",
"3333333333::::::::::::::::::::::::::::::::::::::::::::::::::3333333333",
"3333333333::::::::::::::::::::::::::::::::::::::::::::::::::3333333333",
"3333333333::::::::::::::::::::::::::::::::::::::::::::::::::3333333333",
"3333333333::::::::::::::::::::::::::::::::::::::::::::::::::3333333333",
"3333333333::::::::::::::::::::::::::::::::::::::::::::::::::3333333333",
"3333333333::::::::::::::::::::::::::::::::::::::::::::::::::3333333333",
"3333333333::::::::::::::::::::::::::::::::::::::::::::::::::3333333333",
"3333333333::::::::::::::::::::::::::::::::::::::::::::::::::3333333333",
"3333333333::::::::::::::::::::::::::::::::::::::::::::::::::3333333333",
"3333333333::::::::::::::::::::::::::::::::::::::::::::::::::3333333333",
"3333333333::::::::::::::::::::::::::::::::::::::::::::::::::3333333333",
"3333333333::::::::::::::::::::::::::::::::::::::::::::::::::3333333333",
"3333333333::::::::::::::::::::::::::::::::::::::::::::::::::3333333333",
"3333333333::::::::::::::::::::::::::::::::::::::::::::::::::3333333333",
"3333333333::::::::::::::::::::::::::::::::::::::::::::::::::3333333333",
"3333333333::::::::::::::::::::::::::::::::::::::::::::::::::3333333333",
"3333333333::::::::::::::::::::::::::::::::::::::::::::::::::3333333333",
"3333333333::::::::::::::::::::::::::::::::::::::::::::::::::3333333333",
"3333333333::::::::::::::::::::::::::::::::::::::::::::::::::3333333333",
"3333333333::::::::::::::::::::::::::::::::::::::::::::::::::3333333333",
"3333333333::::::::::::::::::::::::::::::::::::::::::::::::::3333333333"
};
