/* XPM */
static char *b23f6bdbf53d4e92bd7de302991c3e33dromkjzLmdVMfXIR[] = {
/* columns rows colors chars-per-pixel */
"64 64 186 2 ",
"   c None",
".  c #030201",
"X  c #0B0100",
"o  c #000805",
"O  c #030008",
"+  c #140100",
"@  c #190000",
"#  c #1C0806",
"$  c #230101",
"%  c #2B0202",
"&  c #2B0B0B",
"*  c #320302",
"=  c #3C0404",
"-  c #3E0806",
";  c #370509",
":  c #370E0E",
">  c #3D0C0A",
",  c #361111",
"<  c #3E1418",
"1  c #420604",
"2  c #420A03",
"3  c #4C0905",
"4  c #470609",
"5  c #490609",
"6  c #440B0B",
"7  c #4F0603",
"8  c #530604",
"9  c #5C0302",
"0  c #510609",
"q  c #520A0B",
"w  c #4C140D",
"e  c #55140D",
"r  c #5D1409",
"t  c #4F0F10",
"y  c #520F13",
"u  c #5B0D12",
"i  c #4B1614",
"p  c #5C1412",
"a  c #53141A",
"s  c #680709",
"d  c #610C0D",
"f  c #6E0C0C",
"g  c #61060A",
"h  c #7A0809",
"j  c #6A160F",
"k  c #74150D",
"l  c #78110F",
"z  c #751F0A",
"x  c #6C0711",
"c  c #6D0E12",
"v  c #710F14",
"b  c #710C1E",
"n  c #780F1C",
"m  c #7D0E12",
"M  c #641313",
"N  c #6D1311",
"B  c #621912",
"V  c #681A1B",
"C  c #751413",
"Z  c #7B1A17",
"A  c #75151A",
"S  c #771B1E",
"D  c #7A191C",
"F  c #7D1419",
"G  c #6B1C23",
"H  c #761921",
"J  c #761C32",
"K  c #792426",
"L  c #810D0C",
"P  c #8C0D0C",
"I  c #940C0E",
"U  c #9B0C0D",
"Y  c #8B120C",
"T  c #941707",
"R  c #9A1305",
"E  c #95150C",
"W  c #9B130D",
"Q  c #90180D",
"!  c #8F0E10",
"~  c #9B0711",
"^  c #950D12",
"/  c #9C0C15",
"(  c #9D0F1B",
")  c #910715",
"_  c #851717",
"`  c #8E1316",
"'  c #851B14",
"]  c #8D1A14",
"[  c #85151B",
"{  c #8D121A",
"}  c #84191B",
"|  c #8C1B1C",
" . c #951513",
".. c #9B1313",
"X. c #921913",
"o. c #991A14",
"O. c #941519",
"+. c #9B131A",
"@. c #941A1C",
"#. c #9F1A1B",
"$. c #A40E0F",
"%. c #AC0D0E",
"&. c #A21106",
"*. c #A2120D",
"=. c #AD130D",
"-. c #B3110D",
";. c #B21C0B",
":. c #A30E14",
">. c #AA0D13",
",. c #A40E1A",
"<. c #A90F1E",
"1. c #B30F1E",
"2. c #B90E18",
"3. c #B50F16",
"4. c #A21213",
"5. c #AB1414",
"6. c #A41A14",
"7. c #AA1A14",
"8. c #A31319",
"9. c #AC1419",
"0. c #A31A1D",
"q. c #AC1B1C",
"w. c #B41415",
"e. c #BA1513",
"r. c #B31A14",
"t. c #BB1A16",
"y. c #B1141B",
"u. c #BD121C",
"i. c #B31B1B",
"p. c #BB1B1D",
"a. c #97221A",
"s. c #A0211C",
"d. c #AC211C",
"f. c #BA231F",
"g. c #861420",
"h. c #861F20",
"j. c #881F21",
"k. c #891723",
"l. c #941623",
"z. c #9B1422",
"x. c #941927",
"c. c #9D1A23",
"v. c #981F2B",
"b. c #AC1622",
"n. c #A41C21",
"m. c #A81D20",
"M. c #B41B23",
"N. c #BA1C21",
"B. c #8F2024",
"V. c #AC2227",
"C. c #B52021",
"Z. c #B2202C",
"A. c #C10F0C",
"S. c #D2140F",
"D. c #C31515",
"F. c #C6161A",
"G. c #CD1618",
"H. c #C21C1B",
"J. c #CC1C1C",
"K. c #C61916",
"L. c #DD1617",
"P. c #C41420",
"I. c #C31A22",
"U. c #994753",
"Y. c #914852",
"T. c #A14955",
"R. c #8E5662",
"E. c #915663",
"W. c #8B6170",
"Q. c #2C859B",
"!. c #36A1BA",
"~. c #45859B",
"^. c #799AB3",
"/. c #73A0BA",
"(. c #39ACC7",
"). c #3DB7D4",
"_. c #5EB6D3",
"`. c #56B6D3",
"'. c #70ACC8",
"]. c #61B6D3",
"[. c #41C0DF",
"{. c #4DC0DF",
"}. c #43C5E4",
"|. c #44C9E9",
" X c #4DC5E4",
".X c #8E879E",
/* pixels */
"                                                                                                                                ",
"                                                                                                                                ",
"                                                                                                                                ",
"                                                                                                                                ",
"                                                                                                                                ",
"                                                                                                                                ",
"                                                                                                                                ",
"                                                                                                                                ",
"                                                                                                                                ",
"                                                                                                                                ",
"                                                                                                                                ",
"                                                                                                                                ",
"                                                                                                                                ",
"                                                                                                                                ",
"                                                                                                                                ",
"                                                                                                                                ",
"                                                                                                                                ",
"                                                                                                                                ",
"                                                                                                                                ",
"                                                                                                                                ",
"                                                                                                                                ",
"                                                                                                                                ",
"                                                                                                                                ",
"                                                                                                                                ",
"                                                                                                                                ",
"                                                                                                                                ",
"                                                                                                                                ",
"                                                                                                                                ",
"                                                                                                                                ",
"                                                                                                                                ",
"                                                                                                                                ",
"                                                                                                                                ",
"                                                                                                                                ",
"                                                      6 S V.F.L.H.e.>.*.4.                                                      ",
"                                                k C @.q.w.J.G.A.=.5.4.W W O.4 .                                                 ",
"                                            Y q.i.w.D.G.G.t.7.W W $.....W ` 4 . + k.                                            ",
"                                        ....q.r.w.N.I.t.-.5.8.+.....+. ...O.5 . + x...d.                                        ",
"                                      ..4.7.i.U :.q.6.......8.+.....+. ...O.5 . + l.4.7.U                                       ",
"                                  ......4.:.0.I U q.4...+.o.o. ....... ...O.5 . X l.:.7.W Y 8.                                  ",
"                                o. . ...4.8.n.! E 6.8.:.,.6.4.E +......... .5 . X x...7...` 8.y.                                ",
"                              +.......4.4...0.P I q.+...+.#.....O.o.*.&.R ' - X + O.T 7. .) 8.e.9.                              ",
"                              4.............0.I I 0...4.....o. .+.......] V % . X l.R ;.o.O.V.w...                              ",
"                            ] 8.W Y.R.W.E.U.0.U U q...........W / +.| S q % X . . z.D.S.w.#.#.4.Y E                             ",
"                          @. .:.U./._.|._./.T.~ $.q.4... . . ...{ A t % + X . . . v.M.i.P f ` 4.....+.                          ",
"                          A [ { ^.|.|.|.|.|.^.^ U q.:.8.+.O._ N 5 $ X . O O . . % @.c % % w o.-...O.D                           ",
"                        X $ 1 V `.|.|.|.|.|.].! Y s.:.<.z.v - + X . . . . . . X r c.n = H Z 9.w.[ d % X                         ",
"                        @ @ + + }.|.|.|.|.|. XI Y a.| C 5 $ X . . . . . X X . . % x v.h P.:.b.N * @ X .                         ",
"                      J b ; X . (.|.|.|.|.|.'.I U | 2 + . . O O O . X & > $ X . . $ B z K.#.c + . . . . .                       ",
"                      +..._ c 1 Q.[.}.|.}.{..X+.A % . . O o . X + * N ` O.F 0 % X $ 6 * b a + . . . X + %                       ",
"                      +.E ] | ' f ~.!.).!.Q.- e * . . . X . + = M j.O...:.+.{ F 0 5 i X % X . . . + # , a                       ",
"                    X O.E  .+.o.W  .N * $ * = % X . . + $ = p } z.( +.......,.,.O._ p + @ X X @ - w 6 4 0 g                     ",
"                    X O.T  .8.W R *.b.Z.M.1.z.G X X + = M Z X...8.o.o.X.X.X.+.+.4. .k 2 D K h.@.O.{ m s 9 8                     ",
"                    X  .R ..:.%.w.I.N.8.5.%.o.B X < K } ] ..*.$. . .W .... .X.X... .L 9 / #.:.>.>.:.+.` l d                     ",
"                    X +.&.4.y.p.I.1.,...*.=.a.= + y l.+.W *.$.4.....:.>.>.:... . . .L 9 / @.X. ......... .`                     ",
"                    X 8.r.i.i.7.4.>.9.w.D.H._ @ X y +...W *.4.o...4.4.4.:.:.4.4...O.l 8 { | ]  .X. ...4.W /                     ",
"                    + Z.t.7.4.*.*.5.i.f.p.8.p . . y +.W E *...O..... .] ]  ...4.:.O.C 7 { @...%.....4.*.*.*.                    ",
"                    + B.9.4...7.i.I.N.7.*.+.u . . t O.W W ......+.+.+.o.o.+.+.....+.k 9 ^ :...W W E  ...:.>.                    ",
"                    $ | >.3.p.I.N.w.:.W *.+.u X . t O.W  .......+.+.+.+.+.+.+.+. . .j 8 ` +.X.E ..:.:...X.]                     ",
"                      #.u.I.I.2.4.:.4.W W +.u X . t O.W  .........+.+.+.+.+.....+. .j 7 [ O.X...+.+.4.W Q                       ",
"                      C.p.y.4...W .... ... .u X . t O.W  .........+.+.+.+.+.+...:./ v 8 g.l.O.>.,.:.W *.=.                      ",
"                      7.*.*... . .+.o.X.W  .u X . t O.W ............+.+.+.+.......O.d * u D _ .. . .6.H.                        ",
"                        W $.:.......+. ...O.u X . t O.W ............+.+.+.+.....X._ 2 X @ % e ] Q d.N.9.                        ",
"                          $.>.......+. ...O.u . . t O.W  .............+.+.+..... .| = . X @ % h F.u.                            ",
"                            .. .+.:.+. ...O.u . . t O.W  ...........+.+.+.+.....4.( G & $ : M c.6.                              "
};
