/* XPM */
static char *_cdca95adc5846bd9778e18fd4941664mkeMfQvf3ZS3Bvgh[] = {
/* columns rows colors chars-per-pixel */
"64 64 186 2 ",
"   c None",
".  c #030201",
"X  c #0B0100",
"o  c #000805",
"O  c #030008",
"+  c #140100",
"@  c #190000",
"#  c #1C0806",
"$  c #230101",
"%  c #2B0202",
"&  c #2B0B0B",
"*  c #320302",
"=  c #3C0404",
"-  c #3E0806",
";  c #370509",
":  c #370E0E",
">  c #3D0C0A",
",  c #361111",
"<  c #3E1418",
"1  c #420604",
"2  c #420A03",
"3  c #4C0905",
"4  c #470609",
"5  c #490609",
"6  c #440B0B",
"7  c #4F0603",
"8  c #530604",
"9  c #5C0302",
"0  c #510609",
"q  c #520A0B",
"w  c #4C140D",
"e  c #55140D",
"r  c #5D1409",
"t  c #4F0F10",
"y  c #520F13",
"u  c #5B0D12",
"i  c #4B1614",
"p  c #5C1412",
"a  c #53141A",
"s  c #680709",
"d  c #610C0D",
"f  c #6E0C0C",
"g  c #61060A",
"h  c #7A0809",
"j  c #6A160F",
"k  c #74150D",
"l  c #78110F",
"z  c #751F0A",
"x  c #6C0711",
"c  c #6D0E12",
"v  c #710F14",
"b  c #710C1E",
"n  c #780F1C",
"m  c #7D0E12",
"M  c #641313",
"N  c #6D1311",
"B  c #621912",
"V  c #681A1B",
"C  c #751413",
"Z  c #7B1A17",
"A  c #75151A",
"S  c #771B1E",
"D  c #7A191C",
"F  c #7D1419",
"G  c #6B1C23",
"H  c #761921",
"J  c #761C32",
"K  c #792426",
"L  c #810D0C",
"P  c #8C0D0C",
"I  c #940C0E",
"U  c #9B0C0D",
"Y  c #8B120C",
"T  c #941707",
"R  c #9A1305",
"E  c #95150C",
"W  c #9B130D",
"Q  c #90180D",
"!  c #8F0E10",
"~  c #9B0711",
"^  c #950D12",
"/  c #9C0C15",
"(  c #9D0F1B",
")  c #910715",
"_  c #851717",
"`  c #8E1316",
"'  c #851B14",
"]  c #8D1A14",
"[  c #85151B",
"{  c #8D121A",
"}  c #84191B",
"|  c #8C1B1C",
" . c #951513",
".. c #9B1313",
"X. c #921913",
"o. c #991A14",
"O. c #941519",
"+. c #9B131A",
"@. c #941A1C",
"#. c #9F1A1B",
"$. c #A40E0F",
"%. c #AC0D0E",
"&. c #A21106",
"*. c #A2120D",
"=. c #AD130D",
"-. c #B3110D",
";. c #B21C0B",
":. c #A30E14",
">. c #AA0D13",
",. c #A40E1A",
"<. c #A90F1E",
"1. c #B30F1E",
"2. c #B90E18",
"3. c #B50F16",
"4. c #A21213",
"5. c #AB1414",
"6. c #A41A14",
"7. c #AA1A14",
"8. c #A31319",
"9. c #AC1419",
"0. c #A31A1D",
"q. c #AC1B1C",
"w. c #B41415",
"e. c #BA1513",
"r. c #B31A14",
"t. c #BB1A16",
"y. c #B1141B",
"u. c #BD121C",
"i. c #B31B1B",
"p. c #BB1B1D",
"a. c #97221A",
"s. c #A0211C",
"d. c #AC211C",
"f. c #BA231F",
"g. c #861420",
"h. c #861F20",
"j. c #881F21",
"k. c #891723",
"l. c #941623",
"z. c #9B1422",
"x. c #941927",
"c. c #9D1A23",
"v. c #981F2B",
"b. c #AC1622",
"n. c #A41C21",
"m. c #A81D20",
"M. c #B41B23",
"N. c #BA1C21",
"B. c #8F2024",
"V. c #AC2227",
"C. c #B52021",
"Z. c #B2202C",
"A. c #C10F0C",
"S. c #D2140F",
"D. c #C31515",
"F. c #C6161A",
"G. c #CD1618",
"H. c #C21C1B",
"J. c #CC1C1C",
"K. c #C61916",
"L. c #DD1617",
"P. c #C41420",
"I. c #C31A22",
"U. c #994753",
"Y. c #914852",
"T. c #A14955",
"R. c #8E5662",
"E. c #915663",
"W. c #8B6170",
"Q. c #2C859B",
"!. c #36A1BA",
"~. c #45859B",
"^. c #799AB3",
"/. c #73A0BA",
"(. c #39ACC7",
"). c #3DB7D4",
"_. c #5EB6D3",
"`. c #56B6D3",
"'. c #70ACC8",
"]. c #61B6D3",
"[. c #41C0DF",
"{. c #4DC0DF",
"}. c #43C5E4",
"|. c #44C9E9",
" X c #4DC5E4",
".X c #8E879E",
/* pixels */
"                                                                                                                                ",
"                                                                                                                                ",
"                                                                                                                                ",
"                                                                                                                                ",
"                                                                                                                                ",
"                                                                                                                                ",
"                                                                                                                                ",
"                                                                                                                                ",
"                                                                                                                                ",
"                                                                                                                                ",
"                                                                                                                                ",
"                                                                                                                                ",
"                                                                                                                                ",
"                                                                                                                                ",
"                                                                                                                                ",
"                                                                                                                                ",
"                                                                                                                                ",
"                                                                                                                                ",
"                                                                                                                                ",
"                                                                                                                                ",
"                                                                                                                                ",
"                                                                                                                                ",
"                                                                                                                                ",
"                                                                                                                                ",
"                                                                                                                                ",
"                                                                                                                                ",
"                                                                                                                                ",
"                                                                                                                                ",
"                                                                                                                                ",
"                                                                                                                                ",
"                                                                                                                                ",
"                                                                                                                                ",
"                                                                                                                                ",
"                                                      4.*.>.e.K.L.F.V.S 6                                                       ",
"                                                . 4 O.W W 4.5.=.A.G.J.w.q.@.C k                                                 ",
"                                            k.+ . 4 ` W ....$.W W 7.t.J.G.D.w.i.q.Y                                             ",
"                                        d.+.x.+ . 5 O... .........8.5.-.t.I.N.y.r.q.....                                        ",
"                                      U 7.4.l.+ . 5 O... .......+.8.+.....4.q.:.U i.5.4...                                      ",
"                                  8.Y W 7.:.l.X . 5 O... ....... .o.......4.q.U I 0.:.4.......                                  ",
"                                y.8.` ..7...x.X . 5 O...........R 4.4.,.:.8.6.E ! n.8.4... . ...                                ",
"                              9.e.4.) O.7.T O.+ X - ' R &.*...O...+.+...+.+.m.I P 0.+.4.4.......+.                              ",
"                              ..w.V.O.o.;.R l.X . % V ] ......+. ...8...4...n.^ I 0.+...........4.                              ",
"                            E Y 4.#.#.w.S.D.z.. . X % q S } +./ W W ........q.U U 0.U.E.W.R.Y.W 8.]                             ",
"                          +.....4.` f P i.M.v.. . . X @ % t A { ..W  . ...4.q.$.~ T./._.|._./.U.:.O.@.                          ",
"                          D O...-.o.w % % c @.% . . O O . X $ 3 j } O...4.:.q.U ^ ^.|.|.|.|.|.^.{ [ A                           ",
"                        X % d [ w.5.Z H = n c.r X . . . . . . X @ - v +.<.:.s.Y ! ].|.|.|.|.|.`.V 1 $ X                         ",
"                        . X @ * N b.:.P.h v.x % . . X X . . . . . X $ 5 C | a.Y I  X|.|.|.|.|.}.@ + @ @                         ",
"                      . . . . . + c #.K.z B $ . . X $ > & X . O O O . . @ 2 | U I '.|.|.|.|.|.(.. X ; b J                       ",
"                      % + X . . . @ a b * 6 $ X % q F O.` N * + X . o O . . % A +..X{.}.|.}.[.Q.1 c } ..+.                      ",
"                      a , # + . . . X % X i 5 q F { +.:...O.j.M = @ . X . . . * e - Q.!.).!.~.f ' | ] E +.                      ",
"                    g 0 4 6 w - @ X X @ + p [ O.,.,.........( +.} p = $ + . . X % = * $ * N O.W  .+.O.R O.X                     ",
"                    8 9 s m { O.@.h.K D 2 k O.8.+... .X.X. .......X.Z M = @ X X G z.1.M.Z.b.*.R W 8. .T O.X                     ",
"                    d l ` ..:.>.>.:.+./ 9 L  ...X. . ....... . .$.*...] } K < X B ..%.5.8.N.I.w.%.:...R O.X                     ",
"                    `  ......... . .@./ 9 L  . . ...:.>.>.:.......$.*.W ..l.y + = a.=.*...,.1.I.p.y.4.&...X                     ",
"                    / W 4... . . .] | { 8 l  ...4.4.:.:.4.4.4.....4.*.W ..+.y X @ _ H.D.w.5.>.4.7.i.i.r.8.X                     ",
"                    *.*.*.4.....%...@.{ 7 C  .4.4... .] ] O.....O...*.W W +.t . . p 8.p.f.r.5.*.*.4.5.t.Z.+                     ",
"                    >.:... .E W W ..:.^ 9 k ............................W +.t . . u ..*.7.N.I.r.7...4.5.B.@                     ",
"                    ] X...:.:...E X.+.` 8 j O. ....................... .W O.t . X u ..*.W :.y.N.I.p.3.>.| $                     ",
"                      Q W 4.+.+...X.O.[ 7 j O......................... .W O.t . X u ..W W 4.:.4.2.I.I.u.#.                      ",
"                      =.*.W :.,.>.O.l.g.8 v / :....................... .W O.t . X u  ... .+...W ..4.w.p.C.                      ",
"                        H.6. . ..._ D u * d  ......................... .W O.t . X u O... ..... .O...*.*.5.                      ",
"                        9.N.d.Q ] e % @ X 2 _ X....................... .W O.t . X u O... .........:.$.W                         ",
"                            u.F.h % @ X . = |  ....................... .W O.y . . u O... .........>.$.                          ",
"                              6.c.M : $ & G ( 4....................... .W O.y . . u O... .+.:...O...                            "
};
