/* XPM */
static char *brickSpecial03_64x641734280090[] = {
/* columns rows colors chars-per-pixel */
"64 64 45 1 ",
"  c #020102",
". c #0B0100",
"X c #020609",
"o c #120100",
"O c #1C0000",
"+ c #9C6733",
"@ c #9E6935",
"# c #9E6D3D",
"$ c #A16B36",
"% c #A16D3D",
"& c #AE763E",
"* c #AF783F",
"= c #B2753D",
"- c #B2793E",
"; c #9A704A",
": c #A47344",
"> c #AD7642",
", c #A77844",
"< c #AE7842",
"1 c #A1744D",
"2 c #AA7648",
"3 c #AB7949",
"4 c #B17741",
"5 c #B27945",
"6 c #B27C4A",
"7 c #AE835C",
"8 c #BF8C55",
"9 c #B08359",
"0 c #BD8B5B",
"q c #AC8D6E",
"w c #B18660",
"e c #B68C65",
"r c #B88D63",
"t c #B28E6B",
"y c #BA8E69",
"u c #BA906A",
"i c #AD8D71",
"p c #AF9176",
"a c #B29274",
"s c #C5894F",
"d c #C9894C",
"f c #C28752",
"g c #C48A53",
"h c #C98850",
"j c #C28A59",
/* pixels */
"4><&&*<>%%%%%%%%%%%%%%%%%%%%%%%%%%%%%%%%%%%%%%%%%%@;$@@$>>&=&>$$",
"4><&&*<>%%%%%%%%%%%%%%%%%%%%%%%%%%%%%%%%%%%%%%%%%%@;$@@$>>&=&>$$",
"4><&&*<>%%%%%%%%%%%%%%%%%%%%%%%%%%%%%%%%%%%%%%%%%%@;$@@$>>&=&>$$",
"4><&&*<>%%%%%%%%%%%%%%%%%%%%%%%%%%%%%%%%%%%%%%%%%%@;$@@$>>&=&>$$",
"4><&&*<>%%%%%%%%%%%%%%%%%%%%%%%%%%%%%%%%%%%%%%%%%%@;$@@$>>&=&>$$",
"4><&&*<>%%%%%%%%%%%%%%%%%%%%%%%%%%%%%%%%%%%%%%%%%%@;$@@$>>&=&>$$",
"4><&&*<>%%%%%%%%%%%%%%%%%%%%%%%%%%%%%%%%%%%%%%%%%%@;$@@$>>&=&>$$",
"4><&&*<>%%%%%%%%%%%%%%%%%%%%%%%%%%%%%%%%%%%%%%%%%%@;$@@$>>&=&>$$",
"4><&&*<>%%%%%%%%%%%%%%%%%%%%%%%%%%%%%%%%%%%%%%%%%%@;$@@$>>&=&>$$",
"4><&&*<>%%%%%%%%%%%%%%%%%%%%%%%%%%%%%%%%%%%%%%%%%%@;$@@$>>&=&>$$",
"4><&&*<>%%%%%%%%%%%%%%%%%%%%%%%%%%%%%%%%%%%%%%%%%%@;$@@$>>&=&>$$",
"4><&&*<>%%%%%%%%%%%%%%%%%%%%%%%%%%%%%%%%%%%%%%%%%%@;$@@$>>&=&>$$",
"4><&&*<>%%%%%%%%%%%%%%%%%%%%%%%%%%%%%%%%%%%%%%%%%%@;$@@$>>&=&>$$",
"4><&&*<>%%%%%%%%%%%%%%%%%%%%%%%%%%%%%%%%%%%%%%%%%%@;$@@$>>&=&>$$",
"4><&&*<>%%%%%%%%%%%%%%%%%%%%%%%%%%%%%%%%%%%%%%%%%%@;$@@$>>&=&>$$",
"4><&&*<>%%%%%%%%%%%%%%%%%%%%%%%%%%%%%%%%%%%%%%%%%%@;$@@$>>&=&>$$",
"4><&&*<>%%%%%%%%%%%%%%%%%%%%%%%%%%%%%%%%%%%%%%%%%%@;$@@$>>&=&>$$",
">4>>&&><%%%%%%%%%%%$%%%$%%%%%$%%$%%%%%%%$%$%%%@%%%:%##:$>>=&44$$",
"444=&*>,%%%%%%%%%%%%$%%$%%%%%%%%%%%$%%%%:@%%@%%%%%##:#%%>>&4&>$$",
"24>>*&<>%%%%%%%%%%%%%%%%%%%%%$%$%%%%%%%%%$$%%%%%%%#%##%%>>&&&>@%",
"4><&&*<>%%%%%%%%%%%%%%%%%%%%%%%%%%%%%%%%%%%%%%%%%%@;$@@$>>&=&>$$",
">>***&,>%%%%%%%%%%%%%%%%%%%%%%%%%%%%;%%%:$%%%%%%%:%:%;:%>>&&&>@%",
"4><&*&><%%%%%%%%%%%%%%%%%%;%%%%%%%%%%%%%%%%%;%%%$+;%@#%$>4&=&>$$",
"44>*&*>>%%%%%%%%%%%%%%%%%%%%%%%%%%%%%%%%%%%%%%%%%:$%;$%$>>&&&>@%",
">4>>&*,<%%%%%%%%%%%%%;%%%%%%%%%;%%%%%%%%:%%:@:%%%%%%##%%>>=>=>+%",
"4>>4*&>>%%%%%%%%%;%%%%%%%%%1%%%%%%%%%%%;%%%%:@%%%%%%##%$>4&&>>$$",
"4>>=&*>>%%%:%%%%%%%%%%%%%%%%%%%;%%%%%%%%##%##%##%%;%##%%>4&&&>$$",
"44>&-&,<$%%%%%%%%%%;%%%%;%%%%%%%%%%;%;%%#:%%#%%%%%%###%$>>=&&>$%",
">4>=&>,>%%:$%%%%%%%%%%%;%%%%%%%%%%%%%%%%%#%#%#%#%%:%##%%>>&>&>+%",
"4>>>&&>>%%$:%%%%%%%%%;%%%%%%%%%%%%%%%%%%%#:###:%%%%%##%%>4&&&>$$",
"4>>=&&><%%%$%%%%%%%%%%%%%%%%%%%%%%%%%%%%%%%#%%#%%%:###%%>4&=&4$%",
">44>=>>>%%%:%%%%%%%%%%%%%%%%%;%%%%;%%%%%#%%%%#%%%%%###%$>>&&>>+$",
"4>>=>&>:%%%:#:%%,%%%,#%##%%%%##%%%%%%:%%###%#%#%%%%%##%%**=&&&@#",
"44&>&&>>$%%%#%###%#%#%%%%%%%%%%%%%%:%%%%#,#%%%%#%%#%##%%9*&&&&#@",
">=>=&*>>%%%%%#%%##%####%%#%%%#%#%%%%@:%%#%%%#,##%%%%##%%&&&*&<$%",
"4>=&*&>>%%%#:%#%##%#%#%#%%%;%%%%%;%%:$;%%%#%%%##%%#%##%%&&&*&&$%",
">>=&=>>>%%%%:##%%%#%%,###%#%####:@:@@:@######,%%,#%%##%$>4&>&>##",
"444&=>>>%%@:%##%#%%%%%##%%#%:%%%@:@::@@:#,#%#%##%%%%##%%>>&=&>$$",
">4&=&&4:%%%%#%#%###%%%%;#%%%%#%%;%;@:@;@%%%###%%%%%%##%$>>&&&>#$",
"4>=>4442%%%%#:%%##$,%%%%%%%#%%##%%@:@:@:#%%%%#%#%%%;;%%$>=&&&>$%",
">44&&>><%%%%:%%###%#%%%##%%%#%%%%%%@%#%%%%%##%%%%%%%##%$>>44&>$%",
">4&=&&<>%%%%#%%#%%%#%#$,%%#%:%#%%%@:%%%##%:%%##%%%%%##%%>>%=&>$$",
"4>=>*&>>%%%%%##%#,##%%##%%%%#%%%%%;%%##:#%####%%%%%%##%%>>==>>#$",
">=>=&*>,%%%,%:#%%%######%%%;###%%%%%%##%%%%##,#%%%;###%$>4=>>>$%",
">4&4*&<,%%%%#%%#####%,##:@:@:##%%%#%%#%#%#####%#%%%%###%>4&>=4%%",
"4>=&&*>>%%%%%%##%##$%###@:@:@@:%%###%%%%%%,%%#%#:%:%##%%>>&=%4$$",
">4&&&*<>%%%%%%##%#%,%#%#;@:@;@%%%%%:%%###%##%%%%%%####%%>>&&&>@%",
">4&**&><%%%%%##,%%%#%%%%@:@:@:%%#%#%#%%%%%%%#%#%%%#%#%%$>4&>&>$%",
">><>*>,<#%%%%%#%@:@$%@%%%%%%@%%%%%%%%$%%%%;+%%;@%@;%%%%%<*&<&>$$",
"=><4><>>%%%%%%#:%:;%::%;%%%%:%%::%%%:;%%%%$:%%%::%%%%%%$>,&>&>$$",
"*&&<>4><$$%%%%##%@%$+@:@%@%%%%%%+%%%+%%%%%$%%%$@:+%%%$%$>&>>&*$$",
"*&->>4,>%$$%%%%%%%:::%@::%:%%%%%%%%%:%%%:%%:%%:%%:%%%%$%&,&<&-$$",
"&>&*&*>*$$$%%%%$%%%%%$%%@%%$%%:$%%%%@@:%$%@:%$%%@@$%$$$$&>44>>$$",
"&=*<&*>*%%$%%%%%%%%$%%%#%@%%%$$%%%%%:%%$%%%@%#%%@:%$%$%$&4>4>>$$",
"4>=&*&<>=>>>>>&>:>>>>>,>2:4424::4:24>>4::>24,>>>:>:>>>>&>>4:44$$",
"&=>=&*><=>>>>,><>>>>>>>&244:244444:4>>>444:>>>>>444>4>=&&44424$$",
"&&&&&&&&>>&>&>&>>&&&&&&&&&&&&&>&:4>&&&>&>&&&&&&>>&>&&&&&>>4>4:$$",
"&&&&&&&&>&&>>&>&>=&&&&&&&&&&&&&&==&&&&&&&&&&&&&&&>&>&&&=&&=&>>$$",
"&=&*,<<<<<<><><<=%4=&&&&&*&==>==4=4=*&&==&44==4&><><>>444>>444$$",
"&&&&&&&&&&&&&&&&==&:&&&&&&&=%=:=%==%&&&&==%>%&&&&&&&&&%=>&&%44$$",
">,<<>><<>>44>4<444444444>*<<44444444**<*44444454>4>4444>>44422$+",
"&&&&&&&&>=>>>&>>4444>444>&>&4424>444>&>&44444444>>>>>>>>&4:424$$",
"$$@@$$$$$%=$$$$%$%:$%$$$$$%$$$$$$$%$$$%$%$%$$$$$%$%%$$$$$$$$%$+$",
"$$%@$$$$%$%$$$$$$$$$$%%%$$%%$$:$%%%$%$%%%$%$%%%%$%%$$$$$$$$+$%@%"
};
