/* XPM */
static char *eff76ac79cf542fac2589232a501cc30saomi3jADs6XRQp2[] = {
/* columns rows colors chars-per-pixel */
"64 64 88 1 ",
"  c None",
". c black",
"X c #58D9F7",
"o c #57D8F6",
"O c #56D7F6",
"+ c #55D6F5",
"@ c #54D6F4",
"# c #55D7F5",
"$ c #51D4F2",
"% c #4DD0EF",
"& c #49CDED",
"* c #47CBEB",
"= c #46CBEA",
"- c #45CAEA",
"; c #57D9F7",
": c #53D5F3",
"> c #4CD0EF",
", c #45C9E9",
"< c #44C9E9",
"1 c #4BCFEE",
"2 c #50D2F1",
"3 c #46CAEA",
"4 c #56D8F6",
"5 c #48CBEA",
"6 c #51CFEE",
"7 c #54D1EF",
"8 c #50CFED",
"9 c #56D7F5",
"0 c #4ACEED",
"q c #45CAE9",
"w c #56D2F0",
"e c #4FCFED",
"r c #4ACCEB",
"t c #55D2F0",
"y c #55D1EF",
"u c #48CBEB",
"i c #4CCFEE",
"p c #4BCCEC",
"a c #49CBEB",
"s c #57D9F6",
"d c #4ED1F0",
"f c #53D1EF",
"g c #4DCEEC",
"h c #4FCEED",
"j c #4CCDEC",
"k c #4BCDEC",
"l c #49CDEC",
"z c #44C9EA",
"x c #44CAEA",
"c c #4BCCEB",
"v c #4ECEED",
"b c #52D0EE",
"n c #48CCEC",
"m c #42C5E5",
"M c #3DBDDB",
"N c #3CBBDA",
"B c #3EC0DE",
"V c #43C8E8",
"C c #50CFEE",
"Z c #47CCEB",
"A c #41C3E2",
"S c #31AAC6",
"D c #2B9FBB",
"F c #2B9FBA",
"G c #2CA1BC",
"H c #37B4D1",
"J c #35AFCC",
"K c #2A9DB7",
"L c #2A9DB8",
"P c #2BA0BB",
"I c #3CBCDA",
"U c #47CBEA",
"Y c #41C5E4",
"T c #2EA3BF",
"R c #2A9CB7",
"E c #35B0CD",
"W c #50D3F1",
"Q c #34AECA",
"! c #3BBAD8",
"~ c #40C2E1",
"^ c #32AAC7",
"/ c #2DA2BE",
"( c #38B4D2",
") c #43C7E7",
"_ c #42C6E6",
"` c #3DBDDC",
"' c #3FC1E0",
"] c white",
/* pixels */
"                                                                ",
"                                                                ",
"                                                                ",
"                                                                ",
"                                                                ",
"                                                                ",
"                                                                ",
"                                                                ",
"                                                                ",
"                                                                ",
"                                                                ",
"                                                                ",
"                                                                ",
"                                                                ",
"                                                                ",
"                                                                ",
"                                                                ",
"                                                                ",
"                                                                ",
"                                                                ",
"                                                                ",
"                                                                ",
"                                                                ",
"                                                                ",
"                                                                ",
"                                                                ",
"                                                                ",
"                                                                ",
"                                                                ",
"                                                                ",
"                                                                ",
"                                                                ",
"                                                                ",
"                           XXXXXXXXXX                           ",
"                        XXXoO+@@@@+OoXXX                        ",
"                      XX#$%&*=----=*&%$#XX                      ",
"                    X;:>*,<<<<<<<<<<<<,*>:;X                    ",
"                   X@1-<<<<<<<<<<<<<<<<<<-1@X                   ",
"                 Xo2*<<<<<<,33,<<<<<<<<<<<<*2oX                 ",
"                X4>,<<<<<<387765<<<<<<<<<<<<,>4X                ",
"               X90<<<<<<<,ewwww6q<<<<<<<<<<<<<09X               ",
"               41<<<<<<<<uywwwwtr<<<<<<<<<<<<<<14               ",
"              4i<<<<<<<<<atwwwwtp<<<<<<<<<<<<<<<i4              ",
"             sd,<<<qjhg3<3fwwwwy5<<<<<<<<<<<<<<<,ds             ",
"             $-<<<<jwwwh,<kywwtg,<<<<<<<<<<<<<<<<-$             ",
"            +n<<<<qbwww73<<avvc,<<<<<<<<<<<<xz<<<<l#            ",
"            d<<<<<,Cwwwbq<<<<<<<<<<<<<<<<<VVVV<<<<<d            ",
"           @Z<<<<<<ubyfc<<<<<<<<<<<<<<<<<V<<<V)z<<<Z@           ",
"           d<<<<<<<<qU3<<<<<<<<<<<<<<<<zV<<<<<VV<<<<d           ",
"           l<<<<<<<<<<<<<<<<<<<<<<<<<<<<V<<<<<<Vz<<<&           ",
"          W3<<<<<<<<<<<<<<<<<<<<<<<<<<<<V<<<<<<Vz<<<=$          ",
"          i,<<<<<<<<<<<<<<<<<<<<<<<<<<<xV<<<<<<V<<<<,%          ",
"          l<<<<<<<<<<<<<<<<<<<<<<<<<<<<<V<<<<<<z<<<<<0          ",
"          Z<<<<<<<<<<<<<<<<<<<<<<<<<<<<<<<<<<<z<<<<<<l          ",
"          -<<<<<<<<<<<<<<<<<<<<<<<<<<<<<<<zxx<<<<<<<<*          ",
"          <<<<<<<<<<<<<<<<<<<<<<<<<<<<<<<<<<<<<<<<<<<-          ",
"          <<<<<<<<<<<<<<<<<<<<<<<<<<<<<<<<<<<<<<<<<<<<          ",
"          <<<<<<<<<<<<<<<<<<<<<<<<<<<<<<<<<<<<<<<<<<<<          ",
"           <<<<<<<<<<<<<<<<<<<<<<<<<<<<<<<<<<<<<<<<<<           ",
"           <<<<<<<<<<<<<<<<<<<<<<<<<<<<<<<<<<<<<<<<<<           ",
"           <<<<<<<<<<<<<<<<<<<<<<<<<<<<<<<<<<<<<<<<<            ",
"            <<<<<<<<<<<<<<<<<<<<<<<<<<<<<<<<<<<<<<<<            ",
"             <<<<<<<<<<<<<<<<<<<<<<<<<<<<<<<<<<<<<              ",
"              <<<<<<<<<<<<<<<<<<<<<<<<<<<<<<<<<<<               "
};
