/* XPM */
static char *slimeBlue_resized[] = {
/* columns rows colors chars-per-pixel */
"64 64 86 1 ",
"  c None",
". c #2A9CB7",
"X c #2A9DB7",
"o c #2A9DB8",
"O c #2B9FBA",
"+ c #2B9FBB",
"@ c #2BA0BB",
"# c #2CA1BC",
"$ c #2DA2BE",
"% c #2EA3BF",
"& c #31AAC6",
"* c #32AAC7",
"= c #34AECA",
"- c #35AFCC",
"; c #35B0CD",
": c #37B4D1",
"> c #38B4D2",
", c #3BBAD8",
"< c #3CBBDA",
"1 c #3CBCDA",
"2 c #3DBDDB",
"3 c #3DBDDC",
"4 c #3EC0DE",
"5 c #3FC1E0",
"6 c #40C2E1",
"7 c #41C3E2",
"8 c #41C5E4",
"9 c #42C5E5",
"0 c #42C6E6",
"q c #43C7E7",
"w c #43C8E8",
"e c #44C9E9",
"r c #45C9E9",
"t c #45CAE9",
"y c #44C9EA",
"u c #44CAEA",
"i c #45CAEA",
"p c #46CAEA",
"a c #46CBEA",
"s c #47CBEA",
"d c #47CBEB",
"f c #47CCEB",
"g c #48CBEA",
"h c #48CBEB",
"j c #49CBEB",
"k c #4ACCEB",
"l c #4BCCEB",
"z c #48CCEC",
"x c #49CDEC",
"c c #49CDED",
"v c #4BCCEC",
"b c #4BCDEC",
"n c #4ACEED",
"m c #4BCFEE",
"M c #4CCDEC",
"N c #4DCEEC",
"B c #4ECEED",
"V c #4FCEED",
"C c #4FCFED",
"Z c #4CCFEE",
"A c #50CFED",
"S c #50CFEE",
"D c #51CFEE",
"F c #4CD0EF",
"G c #4DD0EF",
"H c #52D0EE",
"J c #53D1EF",
"K c #54D1EF",
"L c #55D1EF",
"P c #4ED1F0",
"I c #50D2F1",
"U c #50D3F1",
"Y c #55D2F0",
"T c #56D2F0",
"R c #51D4F2",
"E c #53D5F3",
"W c #54D6F4",
"Q c #55D6F5",
"! c #55D7F5",
"~ c #56D7F5",
"^ c #56D7F6",
"/ c #56D8F6",
"( c #57D8F6",
") c #57D9F6",
"_ c #57D9F7",
"` c #58D9F7",
/* pixels */
"                                                                ",
"                                                                ",
"                                                                ",
"                                                                ",
"                                                                ",
"                                                                ",
"                                                                ",
"                                                                ",
"                                                                ",
"                                                                ",
"                                                                ",
"                                                                ",
"                                                                ",
"                                                                ",
"                                                                ",
"                                                                ",
"                                                                ",
"                                                                ",
"                                                                ",
"                                                                ",
"                                                                ",
"                                                                ",
"                                                                ",
"                                                                ",
"                                                                ",
"                                                                ",
"                                                                ",
"                                                                ",
"                                                                ",
"                                                                ",
"                                                                ",
"                                                                ",
"                                                                ",
"                           ``````````                           ",
"                        ```(^QWWWWQ^(```                        ",
"                      ``!RGcdaiiiiadcGR!``                      ",
"                    `_EFdreeeeeeeeeeeerdFE_`                    ",
"                   `WmieeeeeeeeeeeeeeeeeeimW`                   ",
"                 `(IdeeeeeeeeeeeerppreeeeeedI(`                 ",
"                `/FreeeeeeeeeeeegDKKApeeeeeerF/`                ",
"               `~neeeeeeeeeeeeetDTTTTCreeeeeeen~`               ",
"               /meeeeeeeeeeeeeekYTTTTLheeeeeeeem/               ",
"              /ZeeeeeeeeeeeeeeevYTTTTYjeeeeeeeeeZ/              ",
"             )PreeeeeeeeeeeeeeegLTTTTJpepNVMteeerP)             ",
"             RieeeeeeeeeeeeeeeerNYTTLberVTTTMeeeeiR             ",
"            !xeeeeyuuyeeeeeeeeeerlBBjeepKTTTHteeeezQ            ",
"            Peeeee92<4weeeeeeeeeeeeeeeetHTTTSreeeeeP            ",
"           Wfeeey7&+O#:weeeeeeeeeeeeeeeelJLHheeeeeefW           ",
"           Peeeew-XooX@1yeeeeeeeeeeeeeeeepsteeeeeeeeP           ",
"           ceeey8%oooo.;eeeeeeeeeeeeeeeeeeeeeeeeeeeex           ",
"          Raeeey8%oooo.;eeeeeeeeeeeeeeeeeeeeeeeeeeeepU          ",
"          Greeeew=.ooXO,ueeeeeeeeeeeeeeeeeeeeeeeeeeerZ          ",
"          neeeeey6*+O$>qeeeeeeeeeeeeeeeeeeeeeeeeeeeeex          ",
"          xeeeeeey0315eeeeeeeeeeeeeeeeeeeeeeeeeeeeeeef          ",
"          deeeeeeeeuuyeeeeeeeeeeeeeeeeeeeeeeeeeeeeeeei          ",
"          ieeeeeeeeeeeeeeeeeeeeeeeeeeeeeeeeeeeeeeeeeee          ",
"          eeeeeeeeeeeeeeeeeeeeeeeeeeeeeeeeeeeeeeeeeeee          ",
"          eeeeeeeeeeeeeeeeeeeeeeeeeeeeeeeeeeeeeeeeeeee          ",
"           eeeeeeeeeeeeeeeeeeeeeeeeeeeeeeeeeeeeeeeeee           ",
"           eeeeeeeeeeeeeeeeeeeeeeeeeeeeeeeeeeeeeeeeee           ",
"            eeeeeeeeeeeeeeeeeeeeeeeeeeeeeeeeeeeeeeeee           ",
"            eeeeeeeeeeeeeeeeeeeeeeeeeeeeeeeeeeeeeeee            ",
"              eeeeeeeeeeeeeeeeeeeeeeeeeeeeeeeeeeeee             ",
"               eeeeeeeeeeeeeeeeeeeeeeeeeeeeeeeeeee              "
};
