/* XPM */
static char *_d8e95d5b6534b8b95e00c214077dbae5CDDRSqkvfSLfhAB[] = {
/* columns rows colors chars-per-pixel */
"64 64 135 2 ",
"   c None",
".  c gray35",
"X  c #5A5A5A",
"o  c #5B5B5B",
"O  c gray36",
"+  c #5D5D5D",
"@  c gray37",
"#  c #5F5F5F",
"$  c #626262",
"%  c gray40",
"&  c #676767",
"*  c #686868",
"=  c DimGray",
"-  c #6A6A6A",
";  c gray42",
":  c #6C6C6C",
">  c #6D6D6D",
",  c gray43",
"<  c #6F6F6F",
"1  c gray44",
"2  c #717171",
"3  c #727272",
"4  c gray45",
"5  c #747474",
"6  c gray46",
"7  c #767676",
"8  c #777777",
"9  c gray47",
"0  c #797979",
"q  c gray48",
"w  c #7B7B7B",
"e  c #7C7C7C",
"r  c gray49",
"t  c #7E7E7E",
"y  c gray50",
"u  c #808080",
"i  c #818181",
"p  c gray51",
"a  c #838383",
"s  c #848484",
"d  c gray52",
"f  c #868686",
"g  c gray53",
"h  c #888888",
"j  c #898989",
"k  c gray54",
"l  c #8B8B8B",
"z  c gray55",
"x  c #8D8D8D",
"c  c #8E8E8E",
"v  c gray56",
"b  c #909090",
"n  c gray57",
"m  c #929292",
"M  c #939393",
"N  c gray58",
"B  c #959595",
"V  c gray59",
"C  c #979797",
"Z  c #989898",
"A  c gray60",
"S  c #9A9A9A",
"D  c #9B9B9B",
"F  c gray61",
"G  c #9D9D9D",
"H  c gray62",
"J  c #9F9F9F",
"K  c #A0A0A0",
"L  c gray63",
"P  c #A2A2A2",
"I  c gray64",
"U  c #A4A4A4",
"Y  c #A5A5A5",
"T  c gray65",
"R  c #A7A7A7",
"E  c gray66",
"W  c #A9A9A9",
"Q  c #AAAAAA",
"!  c gray67",
"~  c #ACACAC",
"^  c gray68",
"/  c #AEAEAE",
"(  c #AFAFAF",
")  c gray69",
"_  c #B1B1B1",
"`  c #B2B2B2",
"'  c gray70",
"]  c #B4B4B4",
"[  c gray71",
"{  c #B6B6B6",
"}  c #B7B7B7",
"|  c gray72",
" . c #B9B9B9",
".. c gray73",
"X. c #BBBBBB",
"o. c #BCBCBC",
"O. c gray74",
"+. c gray",
"@. c gray75",
"#. c #C0C0C0",
"$. c #C1C1C1",
"%. c gray76",
"&. c #C3C3C3",
"*. c gray77",
"=. c #C5C5C5",
"-. c #C6C6C6",
";. c gray78",
":. c #C8C8C8",
">. c gray79",
",. c #CACACA",
"<. c #CBCBCB",
"1. c gray80",
"2. c #CDCDCD",
"3. c #CECECE",
"4. c gray81",
"5. c #D0D0D0",
"6. c gray82",
"7. c #D2D2D2",
"8. c LightGray",
"9. c gray83",
"0. c #D5D5D5",
"q. c gray84",
"w. c #D7D7D7",
"e. c #D8D8D8",
"r. c gray85",
"t. c #DADADA",
"y. c gray86",
"u. c gainsboro",
"i. c #DDDDDD",
"p. c gray87",
"a. c #DFDFDF",
"s. c #E2E2E2",
"d. c gray90",
"f. c #E7E7E7",
"g. c #E9E9E9",
/* pixels */
"  # # # # # # # # # # # # # # # # # # # # # # # # # # # # # # # # # # # # # # # # # # # # # # # # # # # # # # # # # # # # # #   ",
"  # # # # # # # # # # # # # # # # # # # # # # # # # # # # # # # # # # # # # # # # # # # # # # # # # # # # # # # # # # # # # #   ",
"  # # # # # # # # # # # # # # # # # # # # # # # # # # # # # # # # # # # # # # # # # # # # # # # # # # # # # # # # # # # # # #   ",
"  # # # # # # # # # # # # # # # # # # # # # # # # # # # # # # # # # # # # # # # # # # # # # # # # # # # # # # # # # # # # # #   ",
"  # > t t t t t t t 0 0 t 8 t t t t t 0 8 8 8 8 8 8 8 8 8 0 t t t 0 0 t t 0 8 8 8 8 8 8 0 t t t t t 8 8 8 8 0 t 0 0 t t t > #   ",
"  o a ] ` ` ` ` ` ` I R ~ G ~ ` ` ` ` I G G G G G G G G G E ` ` ` I R ` ` I G G G G G G I ` ` ` ` ~ G G G G I ~ I R ` ` ` a o   ",
"  o m w.w.w.w.w.w.w.*.>.5.$.5.y.w.w.w.$. . . . . . . . . .>.y.w.w.*.>.y.w.+. . . . . . .$.w.w.w.y.5. . . . .+.5.*.*.w.w.y.B o   ",
"  o z 2.w.w.w.w.y.y.5.5.w.5.w.w.w.w.w.+.] ] ] ] ] ] ] ] ` *.w.w.w.5.5.w.w.+.] ] ] ] ] ] +.w.w.w.w.5. .] ] ]  .5.5.5.w.w.s.S o   ",
"  o t ` *.*.*.*.*.*.w.5.>.w.>.*.*.*.*.~ R R R R R R R R R ] *.*.*.w.5.*.*.~ R R R R R R ~ *.*.*.*.$.E R R R E $.w.5.*.*.p.B o   ",
"  # 0 R +.+.$. .E E 2.5.>.w.$.+.+.+. .R G G G G G G G G I ` +.+.*.5.2.+.] I G G G G G G R +.+.+.$. .I G G S m R 2.w.+.$.y.B o   ",
"  # 0 R +.+.$.E a a  .5.5.>.$.+.+. .~ I G G G G G G G G ~  .+.$.2.2.*. .E I G G G G G G R +.+.+.+. .I G I B 8 t $.w.+.$.y.B o   ",
"  # 0 E +.+.+.G - - I 2.w.$.+.+.$. .I G G G G G G G G I ] +.+.$.y.>.$. .I G G G G G G G E +.+.+.+. .I G G z % - ` 5.+.$.y.B o   ",
"  # 0 E +.$.~ k 2 2 k +.y.+.+.+.$. .I G I G G G G G G I  .$.+.$.y.>.+. .I G G G G G G R ` +.+.+. .~ I I m a 8 2 B  .$.$.y.B o   ",
"  # 0 R +.$.m 0 m z 8 E y.$.+.+.$. .I G I I G G G G G I  .$.+.$.y.>.+. .I G G G G G G E  .+.+.$.] R I I s 8 z z t B $.$.y.B o   ",
"  # 8 R +.] s 0 I ~ 0 B >.+.+.+.+.] I G I I G G G G I R  .$.$.*.w.>.+.] I G G G I I G ~ $.+.+.$.` G G S t 8 I ~ a a ` $.y.B o   ",
"  # 2 S  .B a k E 5.S s I +.+.$. .E I G G G G G G G I ` +.+.*.5.2.*.] E I G G G I I G ~ $.+.+.$.` G G s t k R 5.I t B +.p.S o   ",
"  # > m ] 0 a S ~ g.] t t +.$.$.] I G G G G G G G G R  .+.+.>.y.*.$.` I G G G I I I I ` $.$.$.$.` G G 2 t S E f.+.t 8  .y.B o   ",
"  # - z ] > a I E y. .0 2 +.$.$.` G G G G G G G I G R +.$.+.>.y.$.+.` G G G G G I I R ] $.+.+. .~ G G - t I R y.+.t - ` 5.m o   ",
"  # - z ] > a I I ] E 0 2 +.$.$.` G G G G G G G I G R +.$.+.>.y.$.+.` G G G G G G I `  .+.+.+.` I G G > t I I ] ~ a - R $.z o   ",
"  # - z ] t a S G I S t a +.$.$.` G G G G G G I I G R +.+.+.>.y.$.+.` G G G G G G I ] $.+.+.+.E G G G 8 t S G I S a 8 G  .k o   ",
"  # - z  .S a s I G s a G +.+.$.` G G G G G I I G G R +.+.+.>.y.$.$.` G G G I I G G  .$.$.$.+.E G G G k 0 s I G s a m G  .k o   ",
"  # - z  . .s 0 G G 8 k  .+.+.$.` G G G G G I I G G R +.+.+.>.y.*.$.` G G G G I G G ] $.+.$.+.E G G G S t 8 G G 0 s ` I  .k o   ",
"  # > B +.$.S a k k 0 S *.$.+. .~ I I G G G G I G I ~ +.+.$.2.5.$. .E G G G I I G G ] $.+.+.$.E G G G I k t k k t B +.I  .k o   ",
"  # 8 I +.$.+.G > 2 m ` $.$.+.` R I I I G G G G G E ] +.+.>.5.>.$.` R G G G I I G G ] $.+.+.$.~ G G G G I m 2 2 z `  .I  .k o   ",
"  # 0 R +.+.5.] - > R $.+.+.+.~ G I G G G G I I G ~ +.+.+.5.w.$.+.E G G G G G I G I ] $.+.+.+.E G G G I ] E - - I $.] I  .k o   ",
"  # 0 E +.+.w.*.k B ] $.+.+.+.E G I I G G G G I G ~ $.+.+.5.w.+.+.E G I G G G G I ~  .$.+.+.` R G G G E $.+.k k ~ +.~ I  .k o   ",
"  # 0 R +.+.5.2.] *.$.+.+.+.+.E G G G G G G I I G ~ $.+.+.5.w.+.+.E G G G G G G I ] +.+.+.+.E I G I I ` 2.2.` `  .] I I  .k o   ",
"  # 0 R +.+.5.w.*.p.>.+.+.+.$.E G G G G G G I I G ~ +.+.+.5.w.+.+.E G G G G G G I +.$.+.$.+.R G G I I ] 5.w.$.$.$.` G I  .k o   ",
"  # 0 E +.+.5.w.*.p.>.+.+.+.$.~ G G G G G G G I G ~ $.+.+.5.w.$.$.E G G G G G G I +.$.+.$.+.R G G G G ] 5.y.$.$.$.` G I  .k o   ",
"  # 0 E +.$.5.5.*.y.>.+.+.+.+.E G G G G G G G G G ~ +.+.$.5.w.+.+.E G G G G G G R +.$.+.+. .R G G G I  .5.w.$.+.+.` G I  .k o   ",
"  # 0 R +.>.5.2.2.5.*.+.+.+.] R G I G G G G G G R ] +.$.>.5.2.+.] R G I G G G I ~ +.+.+.+.` I G G I ~ *.5.2.+.+.] E G I  .k o   ",
"  # 0 R +.w.2.>.w.*.$.+.+.+.E I G I I I G G G G ` +.+.$.5.2.$.+.E I I G G G G E  .+.+.$. .R I G G I  .5.2.$.+.+.~ I G I  .k o   ",
"  # 0 R +.y.2.>.y.$.+.+.$.+.R G G G G G I I G G ` $.+.$.y.2.+. .I G G G G I G E $.$.+.$.] I G G G I +.y.2.+.+.+.E G G I  .k o   ",
"  # 0 R +.y.>.>.y.$.+.+.$.+.R G G G G G I I G G ] $.+.$.y.2.+.+.I G G G G G G ~ $.+.+.$.] G G G G R +.w.2.+.+.+.E G G I  .k o   ",
"  # 0 E $.y.2.>.y.$.+.+.+. .R G G G G G I G G I ] $.+.$.w.2.+. .I G G G G G G E $.+.+.$.] I G G G R +.w.2.+.+.+.E G G I  .k o   ",
"  # 0 E >.5.2.2.5.$.+.+.+.` I G G G G G G G I E  .+.$.>.5.>.+.` I G G G G G G E $.+.+.$.] I G G G I +.y.2.+.$.$.E G G I  .k o   ",
"  # 0 ~ 5.>.5.5.*.$.$.$. .R I G I I I I G G I ] +.+.*.w.>.$.] R I G G G G G G E +.+.$.$. .I I I G R +.y.2.+.$.$.E G G I  .k o   ",
"  # 0 ~ y.*.5.2.` `  .$.] I G G I I G I G G I  .$.+.*.y.*.+.] G I I G G G G I ~ +.+.+.+.] I G G I E $.w.2. .` ` R G I I  .k o   ",
"  # 0 ~ y.*.w.*.k k ` *.] G G G G G G G G G I  .$.+.*.y.*.+.] G I G G G G I E ] +.+.$.] E G G G R ] 2.2.>.` k k S I G I  .k o   ",
"  # 0 ~ y.*.5.] - - R $.] I G G G G G G G G I  .$.+.*.y.*.+.] G I G G G G I ` +.+.+.$.` I G G G E $.y.>.$.R - - k I G I  .k o   ",
"  # 0 ~ y.*.+.G > > m `  .I G G G G G G G G I  .$.+.*.y.*.$.] G I G G G G G ` $.+.+.$.~ G G G G E *.p.>.` m 2 > t B I I  .k o   ",
"  # 0 ~ y.>.S a k k 0 G  .I G G G G G G G G I  .$.+.*.y.*.$.] G G G G G G G ` $.+.+.$.` G G G G E *.p.>.S 0 k k 8 a I I  .k o   ",
"  # 0 ` w.+.s 0 I R 0 k ` I G G G G I I G I R  .$.$.>.y.*.+.` G G G G G G I ` $.+.+.+.~ G G G I ~ *.w.$.k 8 G E t 0 S I +.k o   ",
"  o a  .>.G a s E 2.B a B G G G G I I I G R ` +.+.*.5.2.*.] E G G I G G I E  .$.+.+.] R I G G E  .2.2.I a s R 2.G 0 s G *.m o   ",
"  o s $.+.t a S ~ f.` t 8 G I G G G G I G R  .+.+.>.w.*.$.` I G I I I G I ] +.+.$.+.E I G G G ~ >.w.$.a t S E f. .t 2 G 5.B o   ",
"  o k $. .> a I E p. .0 - G I G G G I I G E +.+.+.2.y.$.$.~ G G I I G G I  .$.+.$.+.E G I G G ` 2.y.+.2 t I R p.+.t - G w.S o   ",
"  o k $. .> a I R +.~ t - G I G G G G G G E +.+.+.2.y.$.+.~ G G G G G G I  .$.+.$.+.E G G G G ` 2.y.+.2 t I I  .` a % G w.S o   ",
"  o k $. .0 a G I I G t 2 G G G G G G G G E +.+.+.2.y.$.+.~ G G G G G G I  .$.+.+.+.E G G G G ` 2.y.+.t t G G I G a > G 5.S o   ",
"  o k $.+.I s k I G k t s G G G G G G G G R +.+.+.2.y.$.$.~ G G G G G G I  .$.+.+.+.E G G G G ` 2.y.$.B a k I G k t a G 5.S o   ",
"  o k $.$.>.z 0 I G 8 t S G G G G G G I G E +.+.+.2.y.$.+.~ G G G G G G I  .$.+.+.+.E G G G G ` 2.y.$.] k 8 G G 0 0 B I 5.S o   ",
"  o s +.*.w.G 0 m z 8 s I G G G G I I I I ~ +.+.$.2.5.$. .E G G G I I I R  .$.+.+. .R G G I R  .2.5.$.$.B 8 z m 8 a I E w.S o   ",
"  o t ] 5.5.` k 2 8 t m I G G G G I I G E ] +.+.2.5.>.+.` R G G I I G R ` +.+.$.+.~ I G G I ~ *.5.>.$.$.I t 8 8 t m R ] w.B o   ",
"  # 0 ` y.*.+.G - - z G G G G G G G G G ~ +.+.+.5.5.$.+.E G G G G G G R +.+.+.$. .R G G G I  .5.5.$.+.$.~ k % % k G R +.y.B o   ",
"  # 0 ` p.*.$.~ a s S I I I I I I I I G ` $.$.+.w.w.+.+.R G I I I I G R +.$.$.$.+.I G I G I  .w.w.+.$.$.` B 8 8 m I R $.y.B o   ",
"  # 0 ` y.*.$. .E E I G I I I I I I I G ` $.+.+.w.5.+.+.R G I I I I G R +.$.+.$. .I G I G I  .w.w.+.+.$.` S m m S G R +.y.B o   ",
"  # 8 E 2.+. . . .] I S S S S S S S S G ~  . .+.2.>. .` G S S S S S S R  . . . .` G S S S I  .2.>. . .] R S S S S S R  .y.S o   ",
"  # 2 S  .` ~ ` ~ I m z z z z z z z z G E ~ ` $.+.] E G m z z z z z B R ~ ~ ` E S z z z m I +.$.] ~ ~ I B z m m z B R ` y.S o   ",
"  # > k I I G I S s a a a a a a a a a B G G I ] E I S s a a a a a t z G G G I B a a a a s G ] ~ I G G k a a a a t z G I 2.B o   ",
"  # % 8 s s s k s 8 2 2 2 2 2 2 2 2 2 a k s k S z s a 2 2 2 2 2 2 2 t k s s k t 2 2 2 2 0 k S z s s s 8 2 2 2 2 2 t s k E s o   ",
"  # $ - > > > > > % % % % % % % % % % > > > > 8 2 > > % % % % % % % - > > > > - % % % % - > 8 2 > > > - % % % % % - > > 0 > #   ",
"  # # # # # # # # # # # # # # # # # # # # # # # # # # # # # # # # # # # # # # # # # # # # # # # # # # # # # # # # # # # # # #   ",
"  # # # # # # # # # # # # # # # # # # # # # # # # # # # # # # # # # # # # # # # # # # # # # # # # # # # # # # # # # # # # # #   ",
"  # # # # # # # # # # # # # # # # # # # # # # # # # # # # # # # # # # # # # # # # # # # # # # # # # # # # # # # # # # # # # #   ",
"  # # # # # # # # # # # # # # # # # # # # # # # # # # # # # # # # # # # # # # # # # # # # # # # # # # # # # # # # # # # # # #   "
};
