/* XPM */
static char *_8c3530189f146169ce8dd99838f070cAWT9B6xnopoJmMkO[] = {
/* columns rows colors chars-per-pixel */
"70 70 38 1 ",
"  c None",
". c gray20",
"X c #3B3C3C",
"o c #555959",
"O c #5D6262",
"+ c #666C6C",
"@ c #6E7575",
"# c #777F7F",
"$ c #7F8889",
"% c #889292",
"& c #909B9C",
"* c #99A5A5",
"= c #A1AEAF",
"- c #AAB8B8",
"; c #B2C1C2",
": c #BBCBCC",
"> c #BCCBCC",
", c #BDCCCD",
"< c #BECDCE",
"1 c #C0CECF",
"2 c #C0CFCF",
"3 c #C1CFD0",
"4 c #C2D0D0",
"5 c #C2D0D1",
"6 c #C3D1D2",
"7 c #C5D2D3",
"8 c #C6D3D3",
"9 c #C6D3D4",
"0 c #C7D4D4",
"q c #C8D5D5",
"w c #CAD6D6",
"e c #CBD7D7",
"r c #CBD8D8",
"t c #CCD8D8",
"y c #CDD9D9",
"u c #CED8D8",
"i c #CFD9D9",
"p c #CFDADA",
/* pixels */
"                                                                      ",
"                                                                      ",
"                                                                      ",
"                            ppppppppp                                 ",
"                       pppppppppppppppppppppp                         ",
"                     ppppppq088888888qqqqppppppp                      ",
"                   ppppq8<:::::::::::::::::15qpppp                    ",
"                 pppp5<:::::::::::::::::::::::>5pppp                  ",
"                ppp5:::::::::::::::::::::::::::::3qpp                 ",
"              ppp8:::::::::::::::::::::::::::::::::3ppp               ",
"              pp8:::::::::::::::::::::::::::::::::::5ppp              ",
"            ppp5:::::::::::::::::::::::::::::::::::::<ppp             ",
"           ppp<:::::::::::::::::::::::::::::::::::::::>qpp            ",
"           p0>:::::::::::::=$+ooooooo###*;::::::::::::::0pp           ",
"          p0::::::::::::-@X...............o%:::::::::::::0p           ",
"         pq:::::::::::;+....................X#::::::::::::0p          ",
"        pq>::::::::::&X.......................X&:::::::::::qp         ",
"        p<::::::::::+...........................#::::::::::>pp        ",
"       p8::::::::::#.............................#::::::::::3p        ",
"       q::::::::::%...............................%::::::::::qp       ",
"      p1:::::::::*.................................&:::::::::<p       ",
"      q:::::::::;X.................................X-:::::::::8p      ",
"      3:::::::::+...................................o:::::::::>p      ",
"     r:::::::::-.....................................*:::::::::0      ",
"     8:::::::::+.....................................o:::::::::3      ",
"     1:::::::::X......................................-:::::::::p     ",
"     :::::::::*.......................................$:::::::::9     ",
"     :::::::::#.......................................O:::::::::5     ",
"    5:::::::::O.......................................X:::::::::<     ",
"    1:::::::::o........................................::::::::::     ",
"    ::::::::::o........................................::::::::::     ",
"    ::::::::::o........................................::::::::::     ",
"    ::::::::::o........................................::::::::::     ",
"    ::::::::::o........................................::::::::::     ",
"    ::::::::::o........................................::::::::::     ",
"    ::::::::::o........................................::::::::::     ",
"    ::::::::::.........................................::::::::::     ",
"    ::::::::::.........................................::::::::::     ",
"    ::::::::::.........................................::::::::::     ",
"    ::::::::::.........................................::::::::::     ",
"    ::::::::::.........................................::::::::::     ",
"    ::::::::::.........................................::::::::::     ",
"    ::::::::::.........................................::::::::::     ",
"    ::::::::::.........................................::::::::::     ",
"    ::::::::::.........................................::::::::::     ",
"    ::::::::::.........................................::::::::::     ",
"    ::::::::::.........................................::::::::::     ",
"    ::::::::::.........................................::::::::::     ",
"    ::::::::::.........................................::::::::::     ",
"    ::::::::::.........................................::::::::::     ",
"    ::::::::::.........................................::::::::::     ",
"    ::::::::::.........................................::::::::::     ",
"    ::::::::::.........................................::::::::::     ",
"    ::::::::::.........................................::::::::::     ",
"    ::::::::::.........................................::::::::::     ",
"    ::::::::::.........................................::::::::::     ",
"    ::::::::::ppppppppppppppppppppppppppppppppppppppppp::::::::::     ",
"    ::::::::::ppppppppppppppppppppppppppppppppppppppppp::::::::::     ",
"    :::::::::::::::::::::::::::::::::::::::::::::::::::::::::::::     ",
"    :::::::::::::::::::::::::::::::::::::::::::::::::::::::::::::     ",
"    :::::::::::::::::::::::::::::::::::::::::::::::::::::::::::::     ",
"    :::::::::::::::::::::::::::::::::::::::::::::::::::::::::::::     ",
"    :::::::::::::::::::::::::::::::::::::::::::::::::::::::::::::     ",
"    :::::::::::::::::::::::::::::::::::::::::::::::::::::::::::::     ",
"    :::::::::::::::::::::::::::::::::::::::::::::::::::::::::::::     ",
"    :::::::::::::::::::::::::::::::::::::::::::::::::::::::::::::     ",
"    :::::::::::::::::::::::::::::::::::::::::::::::::::::::::::::     ",
"    :::::::::::::::::::::::::::::::::::::::::::::::::::::::::::::     ",
"                                                                      ",
"                                                                      "
};
